<?xml version="1.0" encoding="utf-8"?>
<!-- Generator: Adobe Illustrator 17.0.2, SVG Export Plug-In . SVG Version: 6.00 Build 0)  -->
<!DOCTYPE svg PUBLIC "-//W3C//DTD SVG 1.1//EN" "http://www.w3.org/Graphics/SVG/1.1/DTD/svg11.dtd">
<svg version="1.1" id="Layer_1" xmlns="http://www.w3.org/2000/svg" xmlns:xlink="http://www.w3.org/1999/xlink" x="0px" y="0px"
	 width="211.166px" height="136.153px" viewBox="0 0 211.166 136.153" enable-background="new 0 0 211.166 136.153"
	 xml:space="preserve">
<g>
	<rect x="40.568" y="78.699" fill="#FFFFFF" width="11.622" height="11.616"/>
	<rect x="129.394" y="4.669" fill="#FFFFFF" width="11.628" height="11.619"/>
	<rect x="114.593" y="4.669" fill="#FFFFFF" width="11.62" height="11.619"/>
	<rect x="55.369" y="4.669" fill="#FFFFFF" width="11.625" height="11.619"/>
	<rect x="144.206" y="4.669" fill="#FFFFFF" width="11.619" height="11.619"/>
	<rect x="99.787" y="4.669" fill="#FFFFFF" width="11.622" height="11.619"/>
	<rect x="84.978" y="4.669" fill="#FFFFFF" width="11.62" height="11.619"/>
	<rect x="70.175" y="4.669" fill="#FFFFFF" width="11.619" height="11.619"/>
	<rect x="40.568" y="4.669" fill="#FFFFFF" width="11.622" height="11.619"/>
	<rect x="129.394" y="78.699" fill="#FFFFFF" width="11.628" height="11.616"/>
	<rect x="70.175" y="78.699" fill="#FFFFFF" width="11.619" height="11.616"/>
	<rect x="55.369" y="78.699" fill="#FFFFFF" width="11.625" height="11.616"/>
	<rect x="144.206" y="78.699" fill="#FFFFFF" width="11.619" height="11.616"/>
	<rect x="25.733" y="19.472" fill="#FFFFFF" width="11.622" height="11.62"/>
	<rect x="25.733" y="34.278" fill="#FFFFFF" width="11.622" height="11.622"/>
	<rect x="25.733" y="49.087" fill="#FFFFFF" width="11.622" height="11.619"/>
	<rect x="25.733" y="63.893" fill="#FFFFFF" width="11.622" height="11.617"/>
	<rect x="129.394" y="19.472" fill="#FFFFFF" width="11.628" height="11.62"/>
	<rect x="129.394" y="34.278" fill="#FFFFFF" width="11.628" height="11.622"/>
	<rect x="129.394" y="49.087" fill="#FFFFFF" width="11.628" height="11.619"/>
	<rect x="129.394" y="63.893" fill="#FFFFFF" width="11.628" height="11.617"/>
	<rect x="114.593" y="19.472" fill="#FFFFFF" width="11.62" height="11.62"/>
	<rect x="70.175" y="63.893" fill="#FFFFFF" width="11.619" height="11.617"/>
	<rect x="55.369" y="19.472" fill="#FFFFFF" width="11.625" height="11.62"/>
	<rect x="55.369" y="34.278" fill="#FFFFFF" width="11.625" height="11.622"/>
	<rect x="55.369" y="49.087" fill="#FFFFFF" width="11.625" height="11.619"/>
	<rect x="55.369" y="63.893" fill="#FFFFFF" width="11.625" height="11.617"/>
	<rect x="144.206" y="19.472" fill="#FFFFFF" width="11.619" height="11.62"/>
	<rect x="144.206" y="34.278" fill="#FFFFFF" width="11.619" height="11.622"/>
	<rect x="144.206" y="49.087" fill="#FFFFFF" width="11.619" height="11.619"/>
	<rect x="144.206" y="63.893" fill="#FFFFFF" width="11.619" height="11.617"/>
	<rect x="173.846" y="19.472" fill="#FFFFFF" width="11.617" height="11.62"/>
	<rect x="173.846" y="34.278" fill="#FFFFFF" width="11.617" height="11.622"/>
	<rect x="173.846" y="49.087" fill="#FFFFFF" width="11.617" height="11.619"/>
	<rect x="173.846" y="63.893" fill="#FFFFFF" width="11.617" height="11.617"/>
	<path fill="#FFFFFF" d="M185.46,13.935c-0.003-2.549-1.088-4.858-2.858-6.55c-1.771-1.691-4.189-2.725-6.854-2.725h-1.902v11.628
		h11.614V13.935z"/>
	<path fill="#FFFFFF" d="M173.847,78.691v11.545h1.906c2.67,0,5.099-1.028,6.873-2.703c1.774-1.683,2.859-3.97,2.864-6.503v-2.338
		H173.847z"/>
	<rect x="114.593" y="34.278" fill="#FFFFFF" width="11.62" height="11.622"/>
	<rect x="114.593" y="49.087" fill="#FFFFFF" width="11.62" height="11.619"/>
	<rect x="114.593" y="63.893" fill="#FFFFFF" width="11.62" height="11.617"/>
	<rect x="84.978" y="19.472" fill="#FFFFFF" width="11.62" height="11.62"/>
	<rect x="84.978" y="49.087" fill="#FFFFFF" width="11.62" height="11.619"/>
	<rect x="84.978" y="63.893" fill="#FFFFFF" width="11.62" height="11.617"/>
	<rect x="70.175" y="19.472" fill="#FFFFFF" width="11.619" height="11.62"/>
	<rect x="70.175" y="34.278" fill="#FFFFFF" width="11.619" height="11.622"/>
	<rect x="70.175" y="49.087" fill="#FFFFFF" width="11.619" height="11.619"/>
	<rect x="40.568" y="19.472" fill="#FFFFFF" width="11.622" height="11.62"/>
	<rect x="40.568" y="34.278" fill="#FFFFFF" width="11.622" height="11.622"/>
	<rect x="40.568" y="49.087" fill="#FFFFFF" width="11.622" height="11.619"/>
	<rect x="40.568" y="63.893" fill="#FFFFFF" width="11.622" height="11.617"/>
	<path fill="#FFFFFF" d="M28.493,7.35c-1.743,1.698-2.817,4.022-2.817,6.576v2.362h11.68V4.608h-2.11
		C32.613,4.608,30.237,5.656,28.493,7.35z"/>
	<path fill="#FFFFFF" d="M25.722,81.047c0,2.542,1.065,4.841,2.801,6.529c1.74,1.687,4.11,2.715,6.729,2.715h2.104V78.691H25.722
		V81.047z"/>
	<rect x="159.012" y="4.669" fill="#FFFFFF" width="11.621" height="11.619"/>
	<rect x="159.012" y="78.699" fill="#FFFFFF" width="11.621" height="11.616"/>
	<rect x="159.012" y="19.472" fill="#FFFFFF" width="11.621" height="11.62"/>
	<rect x="159.012" y="34.278" fill="#FFFFFF" width="11.621" height="11.622"/>
	<rect x="159.012" y="49.087" fill="#FFFFFF" width="11.621" height="11.619"/>
	<rect x="159.012" y="63.893" fill="#FFFFFF" width="11.621" height="11.617"/>
</g>
<polygon fill="#FFFFFF" points="152.784,118.496 152.383,113.923 135.375,113.923 135.615,118.496 "/>
<polygon fill="#FFFFFF" points="58.824,113.923 58.452,118.496 75.685,118.496 75.896,113.923 "/>
<path fill="#FFFFFF" d="M198.217,130.44c0.658-0.236,1.285-0.534,1.863-0.887c0.585-0.355,1.115-0.761,1.581-1.209
	c0.472-0.453,0.88-0.942,1.216-1.455c0.328-0.51,0.59-1.051,0.777-1.606c0.188-0.552,0.304-1.136,0.347-1.736
	c0.044-0.59,0.012-1.206-0.093-1.829l-3.29-19.454l-6.494-0.005l2.759,17.633c0.041,0.388,0.035,0.757-0.013,1.117
	c-0.05,0.36-0.141,0.711-0.272,1.046c-0.127,0.331-0.298,0.656-0.511,0.963c-0.204,0.295-0.456,0.585-0.747,0.859
	c-0.3,0.282-0.635,0.535-0.999,0.753c-0.369,0.219-0.76,0.401-1.166,0.545c-0.403,0.144-0.828,0.251-1.296,0.33
	c-0.463,0.074-0.93,0.111-1.394,0.111l-16.85-0.012l0.646,5.573l19.585,0.009c0.766-0.003,1.527-0.069,2.265-0.198
	C196.863,130.864,197.565,130.678,198.217,130.44z"/>
<polygon fill="#FFFFFF" points="158.684,107.299 160.402,125.601 134.5,125.589 134.784,131.162 167.771,131.176 164.686,102.237 
	133.363,102.215 133.623,107.281 "/>
<polygon fill="#FFFFFF" points="52.506,107.228 77.603,107.245 77.825,102.175 46.426,102.152 43.523,131.119 76.598,131.136 
	76.846,125.558 50.903,125.543 50.939,125.145 "/>
<path fill="#FFFFFF" d="M102.7,130.135c0.098,0.117,0.204,0.233,0.318,0.34c0.117,0.111,0.238,0.216,0.36,0.312
	c0.122,0.094,0.255,0.186,0.386,0.27c0.127,0.072,0.276,0.145,0.43,0.208c0.151,0.059,0.312,0.109,0.477,0.152
	c0.171,0.045,0.341,0.076,0.517,0.098c0.36,0.04,0.751,0.04,1.099,0c0.173-0.022,0.34-0.054,0.5-0.096
	c0.158-0.041,0.31-0.092,0.457-0.154c0.148-0.06,0.287-0.134,0.421-0.213c0.124-0.079,0.256-0.171,0.38-0.263
	c0.117-0.092,0.239-0.191,0.349-0.3c0.121-0.113,0.229-0.228,0.328-0.346c0.098-0.117,0.19-0.245,0.275-0.377l19.811-27.554
	l-7.451-0.006l-15.4,21.535l-15.598-21.559l-7.889-0.004l19.94,27.564C102.505,129.892,102.6,130.014,102.7,130.135z"/>
<path fill="#FFFFFF" d="M20.743,125.529c-0.475,0-0.948-0.037-1.409-0.114c-0.452-0.075-0.891-0.187-1.302-0.335
	c-0.416-0.146-0.812-0.332-1.176-0.554c-0.377-0.228-0.72-0.483-1.015-0.764c-0.297-0.274-0.562-0.579-0.782-0.906
	c-0.213-0.32-0.389-0.663-0.523-1.026c-0.128-0.352-0.214-0.727-0.256-1.113c-0.037-0.38-0.031-0.768,0.019-1.158l2.62-17.428
	l-6.499-0.006l-3.169,19.481c-0.102,0.625-0.129,1.242-0.081,1.836c0.046,0.595,0.167,1.182,0.359,1.745
	c0.193,0.562,0.462,1.105,0.794,1.613c0.342,0.52,0.754,1.007,1.226,1.446c0.488,0.461,1.025,0.869,1.593,1.215
	c0.58,0.352,1.207,0.652,1.866,0.892c0.655,0.238,1.362,0.424,2.102,0.552c0.73,0.129,1.498,0.197,2.288,0.202l19.635,0.009
	l0.609-5.579L20.743,125.529z"/>
</svg>
