<?xml version="1.0" encoding="utf-8"?>
<!-- Generator: Adobe Illustrator 17.0.2, SVG Export Plug-In . SVG Version: 6.00 Build 0)  -->
<!DOCTYPE svg PUBLIC "-//W3C//DTD SVG 1.1//EN" "http://www.w3.org/Graphics/SVG/1.1/DTD/svg11.dtd">
<svg version="1.1" id="Layer_1" xmlns="http://www.w3.org/2000/svg" xmlns:xlink="http://www.w3.org/1999/xlink" x="0px" y="0px"
	 width="394.069px" height="118.689px" viewBox="0 0 394.069 118.689" enable-background="new 0 0 394.069 118.689"
	 xml:space="preserve">
<path fill="none" stroke="#E9262A" stroke-width="0.96" stroke-miterlimit="10" d="M48.27,104.416
	c-0.243-0.197-0.521-0.371-0.737-0.604c-2.571-2.78-5.123-5.578-7.704-8.35c-0.502-0.539-0.681-1.083-0.496-1.805
	c0.412-1.607,0.776-3.227,1.163-4.841c1.285-5.358,2.577-10.715,3.858-16.074c1.728-7.231,3.445-14.465,5.173-21.695
	c1.851-7.745,3.711-15.487,5.564-23.232c0.664-2.775,1.322-5.552,1.977-8.329c0.073-0.31,0.105-0.629,0.174-1.06
	c-0.384-0.1-0.688-0.247-0.992-0.248c-4.585-0.009-9.17,0-13.754,0.016c-0.321,0.001-0.641,0.1-0.905,0.144
	c-0.537,0.587-0.584,1.266-0.736,1.904c-1.725,7.231-3.45,14.463-5.175,21.695c-1.479,6.198-2.949,12.397-4.44,18.591
	c-2.066,8.583-4.151,17.162-6.22,25.744c-0.466,1.936-0.891,3.88-1.351,5.817c-0.134,0.563-0.322,1.114-0.473,1.626
	c-0.181,0.018-0.247,0.036-0.31,0.027c-0.064-0.009-0.135-0.034-0.183-0.074c-0.151-0.129-0.307-0.255-0.436-0.405
	c-2.642-3.069-5.281-6.14-7.825-9.1c-0.069-0.214-0.097-0.276-0.108-0.341c-0.012-0.064-0.021-0.135-0.007-0.198
	c0.2-0.906,0.384-1.816,0.61-2.716c6.16-24.525,12.324-49.048,18.493-73.57c0.047-0.185,0.162-0.354,0.245-0.533
	c0.695-0.396,1.443-0.231,2.157-0.232c7.974-0.014,15.948-0.009,23.922-0.009c12.36,0,24.72,0,37.08,0.003
	c0.789,0,1.578,0.029,2.251,0.042c0.523,0.524,0.307,0.979,0.2,1.415c-0.746,3.029-1.496,6.058-2.251,9.085
	c-1.832,7.342-3.669,14.682-5.5,22.024c-1.526,6.117-3.048,12.235-4.569,18.354c-2.115,8.501-4.226,17.002-6.341,25.503
	c-1.315,5.282-2.632,10.564-3.956,15.844c-0.095,0.379-0.248,0.744-0.381,1.135c-0.609,0.16-1.175,0.309-1.719,0.451
	c-0.365,0.7-0.712,1.341-0.488,2.187c0.449,0.187,0.921,0.383,1.494,0.622c-0.995,3.969-1.977,7.881-2.937,11.71
	c-0.535,0.254-0.751-0.05-0.954-0.283c-2.481-2.861-4.939-5.742-7.439-8.585c-0.497-0.566-0.619-1.141-0.491-1.832
	c0.084-0.454,0.158-0.91,0.254-1.468c-0.476-0.206-0.933-0.403-1.379-0.596c0.033-1.32,0.033-1.322,1.026-1.515
	c0.255-0.049,0.512-0.086,0.885-0.148c0.23-0.752,0.498-1.491,0.681-2.251c1.967-8.199,3.921-16.4,5.878-24.6
	c1.587-6.65,3.163-13.303,4.761-19.951c1.877-7.808,3.777-15.611,5.657-23.419c0.823-3.419,1.628-6.844,2.42-10.271
	c0.115-0.496,0.119-1.019,0.185-1.621c-0.43-0.089-0.74-0.204-1.051-0.209c-4.445-0.068-8.889-0.084-13.395,0.013
	c-0.188,0.427-0.398,0.762-0.487,1.127c-2.608,10.704-5.208,21.411-7.799,32.12c-1.904,7.871-3.793,15.746-5.688,23.619
	c-2.206,9.163-4.405,18.328-6.63,27.487C48.92,103.173,48.931,103.894,48.27,104.416z M269.694,43.521
	c0.06-0.246,0.007-0.521,0.007-0.865c-0.577-0.14-1.13-0.273-1.762-0.426c0.343-1.317,1.574-0.5,2.391-1.372
	c2.151-8.794,4.398-17.929,6.579-27.006c-1.258-1.475-7.677-6.965-8.947-7.675c-0.592,0.379-0.505,1.054-0.638,1.604
	c-1.552,6.45-3.072,12.909-4.613,19.362c-0.104,0.438-0.3,0.853-0.489,1.383c-0.833,0.044-1.617,0.12-2.402,0.121
	c-5.314,0.01-10.628-0.002-15.943,0.01c-0.777,0.002-1.591-0.144-2.362,0.325c-0.104,0.31-0.231,0.615-0.307,0.931
	c-0.417,1.742-0.821,3.487-1.232,5.229c-0.427,1.808-0.843,3.62-1.299,5.421c-0.092,0.364-0.34,0.689-0.449,0.902
	c-0.621,0.344-1.302-0.04-1.78,0.546c0.602,0.161,1.084,0.289,1.733,0.463c-1.539,6.648-3.138,13.144-4.688,19.651
	c-1.566,6.574-3.193,13.133-4.714,19.795c8.645,7.381,17.219,14.701,26.113,22.295C259.89,83.739,264.796,63.631,269.694,43.521z
	 M247.045,42.417c-0.22-0.067-0.547-0.237-0.573-0.401c-0.064-0.398,0.277-0.551,0.627-0.594c0.454-0.056,0.91-0.088,1.46-0.14
	c0.327-1.109,0.641-2.175,0.943-3.198c1.563-0.366,8.346-0.393,10.264-0.036c0.154,1.181-0.232,2.272-0.699,3.443
	c-0.492,0.089-0.998,0.18-1.599,0.288c0.237,0.589,0.851,0.303,1.168,0.628c0.326,0.548,0.092,1.131-0.045,1.695
	c-2.292,9.471-4.599,18.937-6.891,28.408c-0.764,3.155-1.476,6.324-2.251,9.476c-0.167,0.681-0.156,1.464-0.842,2.072
	c-0.34-0.197-0.701-0.345-0.987-0.583c-2.091-1.739-4.137-3.534-6.259-5.232c-0.974-0.779-1.13-1.585-0.835-2.768
	c1.158-4.63,2.204-9.287,3.304-13.932c1.175-4.966,2.363-9.929,3.548-14.893c0.215-0.902,0.453-1.798,0.656-2.704
	c0.086-0.379,0.11-0.773,0.192-1.377C247.683,42.506,247.35,42.509,247.045,42.417z M178.805,78.107
	c-0.551,2.189-1.195,4.358-1.662,6.564c-0.247,1.171-0.817,1.849-1.888,2.323c-2.914,1.292-5.791,2.666-8.684,4.006
	c-8.195,3.794-16.387,7.598-24.592,11.368c-0.851,0.39-1.411,0.872-1.593,1.834c-0.505,2.674-1.076,5.336-1.601,8.006
	c-0.057,0.29,0.02,0.607,0.042,1.089c0.942-0.395,1.735-0.71,2.514-1.057c9.886-4.409,19.771-8.82,29.654-13.235
	c4.487-2.005,8.958-4.045,13.464-6.007c0.967-0.421,1.396-1.004,1.622-2.026c0.902-4.082,1.904-8.142,2.878-12.208
	c2.102-8.778,4.217-17.555,6.315-26.334c1.744-7.294,3.476-14.592,5.207-21.89c0.085-0.359,0.103-0.733,0.165-1.185
	c-0.582-0.041-1.04-0.1-1.497-0.1c-9.638-0.004-19.275-0.004-28.912,0.005c-0.446,0.001-0.891,0.09-1.367,0.14
	c-0.191,0.662-0.375,1.224-0.515,1.797c-1.789,7.353-3.567,14.708-5.356,22.06c-0.895,3.676-1.789,7.352-2.718,11.019
	c-0.244,0.964-0.177,1.766,0.453,2.601c1.277,1.698,2.452,3.473,3.669,5.216c0.76,1.09,1.534,2.17,2.271,3.276
	c0.404,0.607,0.918,0.922,1.656,0.889c0.464-0.021,0.93,0.004,1.396,0.004c2.392,0.002,4.785-0.009,7.178,0.01
	c0.649,0.005,1.333-0.129,2.109,0.422C178.94,77.206,178.915,77.667,178.805,78.107z M187.718,40.881
	c-0.771,3.986-5.902,24.396-6.436,25.642c-1.392,0.32-6.046,0.38-8.34,0.101c-0.882-0.953-1.465-2.15-2.126-3.294
	c-0.245-0.425-0.269-0.855-0.147-1.339c0.469-1.866,0.896-3.742,1.351-5.611c1.236-5.092,2.474-10.183,3.723-15.271
	c0.109-0.442,0.311-0.862,0.483-1.331c0.42-0.079,0.803-0.213,1.185-0.212c3.253,0.005,6.506,0.032,9.759,0.07
	c0.17,0.002,0.338,0.165,0.6,0.302C187.755,40.245,187.778,40.571,187.718,40.881z M337.669,84.048
	c1.606,1.288,3.229,2.555,4.822,3.861c0.283,0.232,0.673,0.649,0.622,0.904c-0.094,0.48,0.027,0.749,0.359,1.015
	c0.57,0.457,1.118,0.944,1.713,1.366c0.311,0.221,0.701,0.46,1.057,0.463c1.202,0.009,1.955,0.672,2.632,1.545
	c0.275,0.355,0.598,0.774,0.989,0.917c0.972,0.355,1.701,1.028,2.478,1.64c3.025,2.386,6.033,4.794,9.054,7.184
	c0.454,0.359,0.947,0.669,1.488,1.049c0.154-0.369,0.284-0.598,0.346-0.843c0.587-2.316,1.167-4.633,1.735-6.954
	c0.094-0.384,0.16-0.787,0.16-1.182c-0.002-1.552-0.014-1.552,0.597-2.505c-0.077-0.092-0.14-0.242-0.234-0.264
	c-0.627-0.153-0.912-0.517-0.756-1.16c0.17-0.704,0.361-1.402,0.544-2.105c0.554-0.231,1.03-0.43,1.595-0.667
	c3.633-15.014,7.269-30.039,10.896-45.066c0.041-0.174-0.04-0.377-0.065-0.584c-0.573-0.159-1.122-0.312-1.698-0.472
	c0.355-1.299,1.617-0.433,2.179-1.09c0.06-0.108,0.153-0.217,0.184-0.34c0.869-3.475,1.739-6.95,2.584-10.431
	c0.07-0.286-0.029-0.613-0.054-0.988c-0.498-0.034-0.889-0.083-1.28-0.083c-9.833-0.005-19.665-0.007-29.498-0.001
	c-0.444,0-0.889,0.08-1.409,0.129c-0.359,1.438-0.7,2.782-1.029,4.129c-0.583,2.384-1.154,4.772-1.747,7.153
	c-0.077,0.309-0.259,0.592-0.372,0.842c-0.589,0.11-1.076,0.201-1.95,0.364c0.83,0.268,1.286,0.415,1.782,0.575
	c-1.412,6.784-3.157,13.368-4.73,19.993c-1.579,6.644-3.268,13.263-4.804,20.085C336.557,83.116,337.103,83.595,337.669,84.048z
	 M356.193,42.755c-0.337-0.588-1.167-0.033-1.624-0.71c0.09-0.144,0.174-0.464,0.335-0.509c0.502-0.14,1.033-0.175,1.698-0.271
	c0.311-0.787,0.645-1.632,0.965-2.443c1.682-0.299,8.829-0.303,10.654,0.002c0.326,0.922-0.187,1.733-0.388,2.653
	c-0.637,0.105-1.211,0.2-1.781,0.295c-0.008,0.081-0.031,0.2-0.018,0.204c0.422,0.138,0.848,0.266,1.392,0.431
	c-0.019,0.337,0.015,0.723-0.07,1.081c-1.117,4.712-2.244,9.422-3.383,14.13c-1.028,4.255-2.072,8.506-3.11,12.759
	c-0.865,3.543-1.735,7.086-2.597,10.631c-0.219,0.902-0.401,1.814-0.633,2.713c-0.077,0.297-0.256,0.568-0.424,0.927
	c-0.345-0.144-0.603-0.203-0.803-0.343c-2.497-1.757-4.971-3.547-7.485-5.28c-0.845-0.582-1.001-1.211-0.751-2.197
	c1.11-4.371,2.133-8.764,3.196-13.147c1.453-5.995,2.918-11.988,4.37-17.982c0.208-0.857,0.19-0.861-0.389-1.991
	C355.497,43.275,356.343,43.5,356.193,42.755z M341.108,43.134c0.028-0.117-0.043-0.257-0.089-0.491
	c-0.511-0.12-1.064-0.251-1.746-0.413c0.406-1.257,1.585-0.55,2.308-1.183c1.032-3.404,1.734-7.055,2.679-10.643
	c0.079-0.298,0.01-0.636,0.01-0.904c-0.159-0.083-0.215-0.124-0.278-0.142c-0.126-0.036-0.255-0.08-0.383-0.084
	c-0.532-0.016-1.063-0.025-1.594-0.024c-9.833,0.014-19.666,0.031-29.498,0.048c-0.065,0-0.134,0.019-0.194,0.046
	c-0.057,0.026-0.105,0.072-0.321,0.228c-1.131,3.837-1.792,7.968-2.984,11.743c-0.604,0.531-1.323,0.108-1.788,0.683
	c0.548,0.162,0.97,0.286,1.462,0.431c-0.226,1.799-0.575,3.455-1.227,5.066c-0.842,0.1-1.61,0.191-2.406,0.285
	c-0.142,0.601-0.274,1.112-0.374,1.63c-0.021,0.108,0.077,0.238,0.135,0.397c0.393,0.162,0.811,0.334,1.161,0.479
	c0.554,0.927,0.551,1.785,0.293,2.738c-0.554,2.049-0.995,4.129-1.497,6.192c-1.728,7.093-3.468,14.184-5.185,21.281
	c-0.168,0.694-0.448,1.397-0.189,2.28c1.735,1.384,3.573,2.801,5.349,4.292c0.743,0.625,1.981,0.949,1.722,2.353
	c-0.022,0.123,0.218,0.321,0.368,0.445c0.615,0.506,1.234,1.01,1.872,1.486c0.203,0.151,0.48,0.318,0.71,0.3
	c1.119-0.085,1.852,0.593,2.632,1.217c4.097,3.279,8.2,6.55,12.305,9.818c0.56,0.446,1.149,0.856,1.741,1.294
	c0.717-1.555,2.75-9.753,2.896-11.571c-1.099-0.677-1.11-0.68-0.886-1.655c0.133-0.579,0.307-1.149,0.475-1.766
	c0.485-0.205,0.966-0.407,1.603-0.676C333.848,73.187,337.482,58.161,341.108,43.134z M331.153,41.498
	c-0.692,0.102-1.255,0.187-2.045,0.305c0.555,0.544,1.206,0.241,1.669,0.752c-0.016,0.198,0.001,0.519-0.072,0.82
	c-1.125,4.71-2.258,9.418-3.396,14.125c-1.996,8.252-3.99,16.504-6.008,24.75c-0.184,0.753-0.212,1.576-0.78,2.364
	c-0.356-0.154-0.731-0.249-1.027-0.456c-2.445-1.715-4.862-3.473-7.322-5.167c-0.774-0.533-0.988-1.1-0.755-2.015
	c0.951-3.728,1.842-7.471,2.75-11.21c1.127-4.639,2.249-9.28,3.377-13.936c-0.19-0.422-0.379-0.837-0.549-1.215
	c-0.49-0.15-0.917-0.28-1.364-0.417c-0.113-1.05,0.287-1.885,0.604-2.827c0.779-0.131,1.548-0.261,2.428-0.41
	c0.337-1.405,0.959-2.728,0.907-4.296c-0.581-0.153-1.129-0.297-1.704-0.448c0.39-0.746,0.39-0.746,2.091-1
	c0.302-0.785,0.628-1.63,0.938-2.434c2.076-0.293,9.121-0.246,10.852,0.117C331.532,39.846,331.344,40.665,331.153,41.498z
	 M86.434,82.648c4.657,4.058,9.317,8.114,13.977,12.169c3.056,2.661,6.11,5.323,9.175,7.974c0.324,0.28,0.611,0.735,1.301,0.457
	c0.228-0.961,0.469-1.987,0.717-3.011c2.156-8.9,4.322-17.799,6.47-26.701c2.054-8.516,4.088-17.037,6.134-25.556
	c1.38-5.743,2.769-11.484,4.141-17.229c0.101-0.422,0.092-0.871,0.148-1.448c-2.656-0.095-5.173-0.036-7.688-0.046
	c-2.525-0.009-5.05-0.002-7.575-0.002c-2.591,0-5.183-0.021-7.774,0.005c-2.509,0.026-5.024-0.12-7.481,0.095
	c-0.532,1.373-2.002,7.127-2.286,8.957c-0.049,0.315-0.007,0.644-0.007,0.941c0.751,0.428,1.498,0.275,2.215,0.277
	c5.183,0.012,10.366-0.002,15.548,0.014c0.711,0.002,1.464-0.178,2.131,0.282c0.277,0.679,0.009,1.32-0.142,1.949
	c-0.508,2.131-1.046,4.254-1.594,6.374c-0.146,0.565-0.363,1.112-0.584,1.775c-0.775,0.029-1.493,0.077-2.213,0.078
	c-5.316,0.006-10.631-0.003-15.947,0.011c-0.716,0.002-1.459-0.147-2.18,0.206c-0.125,0.295-0.298,0.589-0.376,0.906
	c-2.421,9.929-4.833,19.86-7.239,29.792c-0.045,0.183,0.011,0.392,0.027,0.721C85.749,82.021,86.084,82.343,86.434,82.648z
	 M104.192,83.683c-2.491-2.185-4.97-4.383-7.5-6.621c0.28-1.24,0.525-2.397,0.803-3.545c1.156-4.768,2.318-9.536,3.488-14.301
	c0.345-1.406,0.366-1.439,1.676-1.452c2.523-0.025,5.046-0.02,7.569-0.004c0.381,0.003,0.762,0.13,1.133,0.198
	c-0.108,1.667-5.52,23.91-6.372,26.126C104.648,83.916,104.379,83.847,104.192,83.683z M271.632,52.582
	c-0.816,3.356-1.626,6.712-2.439,10.068c-0.827,3.419-1.657,6.838-2.482,10.258c-0.809,3.351-1.613,6.702-2.443,10.15
	c8.441,6.978,16.886,13.849,25.303,20.754c0.193,0.158,0.445,0.244,0.748,0.406c0.127-0.324,0.246-0.549,0.305-0.789
	c2.469-10.125,4.935-20.251,7.39-30.379c0.045-0.182-0.023-0.391-0.042-0.63c-1.013-0.471-2.085-0.23-3.127-0.255
	c-1.129-0.028-2.26-0.041-3.388-0.005c-1.035,0.033-2.12-0.268-3.116,0.367c-0.345,1.435-0.683,2.855-1.026,4.273
	c-0.36,1.484-0.683,2.98-1.103,4.447c-0.392,1.37-0.414,2.868-1.304,4.186c-0.408-0.25-0.757-0.428-1.065-0.659
	c-1.327-0.999-2.643-2.011-3.961-3.022c-1.055-0.809-2.093-1.641-3.165-2.426c-0.778-0.57-1.168-1.183-0.764-2.197
	c0.292-0.732,0.387-1.542,0.575-2.317c1.028-4.259,2.056-8.518,3.087-12.777c0.14-0.576,0.198-1.194,0.95-1.692
	c1.198-0.011,2.589-0.035,3.98-0.035c4.851,0,9.702,0.014,14.554,0.006c0.651-0.001,1.335,0.122,2.078-0.376
	c0.354-1.42,0.767-2.952,1.114-4.497c0.356-1.586,0.98-3.133,0.913-4.771c-0.528-0.199-0.946-0.356-1.339-0.505
	c0-0.295-0.03-0.494,0.005-0.683c0.369-2.016,0.372-2.015,2.481-2.628c0.266-1.084,0.559-2.234,0.823-3.39
	c0.056-0.243,0.008-0.51,0.008-0.781c-0.616-0.174-1.165-0.329-1.741-0.491c0.344-1.227,1.428-0.541,2.144-1.047
	c0.102-0.248,0.297-0.596,0.389-0.969c0.812-3.287,1.613-6.576,2.393-9.871c0.068-0.284-0.034-0.607-0.059-0.946
	c-0.38-0.041-0.64-0.093-0.9-0.093c-9.637-0.005-19.274-0.007-28.911,0c-0.379,0-0.759,0.096-1.162,0.15
	c-0.121,0.403-0.228,0.71-0.305,1.026c-0.776,3.159-1.552,6.319-2.313,9.482c-0.14,0.582-0.225,1.175-0.681,1.609
	c-1.412,0.187-1.551,0.226-1.59,0.523c0.424,0.092,0.855,0.184,1.623,0.349C273.285,45.914,272.444,49.245,271.632,52.582z
	 M291.965,47.726c-0.189,0.59-0.383,1.199-0.602,1.887c0.552,0.274,1.007,0.501,1.58,0.786c-0.083,0.406-0.103,0.871-0.286,1.26
	c-0.118,0.251-0.459,0.42-0.733,0.563c-0.162,0.084-0.389,0.059-0.586,0.059c-2.65,0.001-5.3,0.001-7.949-0.011
	c-0.254-0.001-0.507-0.083-0.871-0.147c-0.016-0.42-0.108-0.808-0.032-1.159c0.363-1.68,0.778-3.35,1.162-5.026
	c0.177-0.773,0.34-1.551,0.482-2.332c0.047-0.251,0.007-0.517,0.007-0.888c-0.444-0.125-0.878-0.216-1.284-0.379
	c-0.131-0.052-0.268-0.302-0.254-0.447c0.014-0.147,0.191-0.368,0.331-0.398c0.511-0.11,1.034-0.153,1.649-0.234
	c0.293-0.865,0.585-1.726,0.891-2.63c1.716-0.55,3.443-0.214,5.139-0.239c1.64-0.026,3.299-0.198,4.969,0.174
	c0.401,1.069-0.198,1.928-0.398,2.903c-0.62,0.115-1.178,0.219-1.73,0.322c0.001,0.492,0.354,0.34,0.57,0.399
	c0.244,0.069,0.494,0.117,0.726,0.171c-0.033,1.742-0.309,2.923-1.203,5.129C292.991,47.573,292.538,47.64,291.965,47.726z
	 M219.606,103.572c5.936-24.506,11.864-49.014,17.782-73.524c0.043-0.176-0.048-0.384-0.075-0.568
	c-1.561-0.287-8.987-0.302-10.826-0.008c-0.606,1.771-0.907,3.674-1.374,5.532c-0.455,1.802-0.886,3.608-1.322,5.414
	c-0.451,1.869-0.902,3.74-1.343,5.612c-0.441,1.874-0.859,3.753-1.307,5.624c-0.432,1.807-0.899,3.606-1.337,5.411
	c-0.453,1.871-0.893,3.745-1.333,5.619c-0.438,1.873-0.856,3.751-1.307,5.62c-0.451,1.871-0.944,3.731-1.398,5.602
	c-0.438,1.805-0.835,3.62-1.273,5.424c-0.448,1.844-0.698,3.745-1.482,5.604c-0.34-0.154-0.612-0.212-0.796-0.37
	c-2.763-2.377-5.506-4.777-8.194-7.272c0.105-0.534,0.177-0.988,0.284-1.434c1.343-5.614,2.692-11.227,4.039-16.84
	c1.857-7.743,3.714-15.485,5.571-23.228c0.371-1.549,0.76-3.094,1.098-4.65c0.121-0.555,0.382-1.152-0.164-1.815
	c-1.495-0.119-3.083-0.064-4.666-0.058c-1.644,0.005-3.295-0.091-5.027,0.082c-1.19,4.445-2.154,8.843-3.196,13.223
	c-1.029,4.324-2.06,8.649-3.09,12.974c-1.046,4.388-2.113,8.771-3.133,13.166c-1.018,4.384-2.187,8.735-3.032,13.052
	c1.525,1.614,25.24,21.225,26.636,22.055C219.432,103.738,219.583,103.67,219.606,103.572z M148.958,94.045
	c1.453-6.069,2.898-12.14,4.355-18.207c1.44-6.002,2.894-12.001,4.336-18.004c1.426-5.936,2.843-11.875,4.265-17.812
	c0.711-2.968,1.446-5.931,2.116-8.908c0.12-0.535,0.476-1.121,0.077-1.694c-1.847-0.219-29.633-0.212-31.305,0.011
	c-0.106,0.216-0.27,0.44-0.331,0.69c-4.176,17.219-8.345,34.44-12.505,51.663c-0.06,0.247-0.007,0.522-0.007,0.936
	c2.515,2.144,5.087,4.338,7.666,6.524c0.186,0.157,0.43,0.246,0.77,0.433c0.223-0.738,0.44-1.351,0.592-1.979
	c0.484-2,0.939-4.006,1.412-6.009c1.832-7.751,3.666-15.501,5.501-23.252c1.346-5.684,2.689-11.368,4.049-17.048
	c0.212-0.888,0.304-1.83,0.877-2.558c2.247-0.312,9.148-0.25,10.579,0.095c0.216,0.731-0.059,1.424-0.23,2.128
	c-0.812,3.354-1.63,6.707-2.43,10.063c-1.679,7.037-3.341,14.077-5.022,21.113c-1.883,7.876-3.784,15.748-5.664,23.624
	c-0.119,0.499-0.124,1.026-0.18,1.533c0.539,0.445,0.986,0.838,1.458,1.198c0.517,0.395,1.057,0.759,1.568,1.122
	c0.553-0.224,0.989-0.381,1.408-0.574c1.987-0.92,3.968-1.851,6.07-2.833C148.597,95.454,148.788,94.752,148.958,94.045z
	 M346.628,13.739c-1.203-1.337-2.679-2.456-4.104-3.621c-1.399-1.144-2.61-2.547-4.404-3.446c-0.832,3.422-1.632,6.693-2.413,9.969
	c-0.057,0.239,0.032,0.513,0.057,0.822c2.681,2.156,5.355,4.306,8.178,6.576C344.713,22.153,346.325,15.893,346.628,13.739z
	 M321.428,7.425c-0.718,3.289-1.761,6.505-2.281,9.746c1.562,1.595,6.94,5.874,8.312,6.638c0.671-1.211,2.49-8.273,2.602-10.101
	c-1.416-1.499-6.858-6.075-8.255-6.924C321.676,6.997,321.478,7.194,321.428,7.425z M355.99,17.449
	c0.553,0.464,1.158,0.974,1.766,1.48c0.654,0.546,1.247,1.116,1.764,1.829c0.417,0.577,1.32,0.791,1.985,1.201
	c0.335,0.207,0.618,0.499,0.932,0.743c0.517,0.401,1.039,0.794,1.698,1.296c0.222-0.544,0.499-0.94,0.519-1.348
	c0.029-0.563-0.304-1.179-0.173-1.693c0.132-0.523,0.798-0.904,0.955-1.429c0.566-1.892,1.112-3.796,1.43-5.872
	c-1.966-1.683-3.92-3.364-5.883-5.033c-0.706-0.6-1.432-1.177-2.161-1.75c-0.083-0.066-0.241-0.036-0.365-0.051
	C357.732,8.432,355.971,15.941,355.99,17.449z M129.598,23.223c0.726-2.825,1.434-5.654,2.164-8.478
	c0.187-0.724,0.021-1.279-0.561-1.764c-2.395-1.996-4.771-4.015-7.163-6.015c-0.128-0.107-0.343-0.109-0.632-0.194
	c-0.955,3.491-1.797,6.943-2.53,10.358c1.289,1.344,6.795,5.771,8.384,6.735C129.417,23.572,129.55,23.409,129.598,23.223z
	 M105.718,11.307c-0.419,1.67-0.812,3.346-1.236,5.014c-0.194,0.763,0.151,1.244,0.713,1.693c2.281,1.815,4.541,3.657,6.824,5.47
	c0.221,0.175,0.546,0.218,0.827,0.324c0.95-2.843,2.387-8.802,2.452-10.123c-1.779-1.812-6.97-6.139-8.404-6.947
	C106.474,8.367,106.087,9.834,105.718,11.307z M373.544,11.912c-0.439,1.787-1.048,3.544-1.181,5.379
	c0.322,0.296,0.552,0.533,0.807,0.739c2.275,1.833,4.555,3.661,6.834,5.488c0.102,0.082,0.223,0.143,0.339,0.205
	c0.058,0.031,0.126,0.059,0.189,0.059c0.061,0,0.122-0.035,0.316-0.099c0.134-0.412,0.319-0.896,0.447-1.395
	c0.482-1.862,0.908-3.74,1.428-5.592c0.313-1.113,0.373-2.21,0.216-3.291c-2.198-2.195-6.662-5.898-8.036-6.652
	C374.232,8.424,373.966,10.191,373.544,11.912z"/>
<path fill-rule="evenodd" clip-rule="evenodd" fill="#E9262A" d="M44.517,101.413c-0.244-0.197-0.521-0.371-0.737-0.604
	c-2.571-2.78-5.123-5.578-7.704-8.35c-0.503-0.54-0.682-1.083-0.497-1.806c0.412-1.607,0.776-3.227,1.163-4.841
	c1.286-5.358,2.577-10.715,3.858-16.074c1.728-7.231,3.445-14.465,5.173-21.695c1.851-7.745,3.711-15.487,5.564-23.232
	c0.664-2.776,1.323-5.552,1.978-8.329c0.073-0.31,0.105-0.63,0.174-1.06c-0.384-0.1-0.688-0.248-0.992-0.248
	c-4.585-0.009-9.17,0-13.754,0.016c-0.321,0.001-0.641,0.1-0.905,0.144c-0.537,0.587-0.584,1.266-0.736,1.904
	c-1.725,7.232-3.45,14.464-5.176,21.695c-1.479,6.198-2.949,12.397-4.439,18.591c-2.066,8.583-4.151,17.162-6.22,25.744
	c-0.466,1.936-0.892,3.88-1.352,5.817c-0.134,0.564-0.322,1.114-0.473,1.627c-0.181,0.018-0.248,0.036-0.31,0.027
	c-0.064-0.01-0.135-0.034-0.183-0.075c-0.151-0.129-0.307-0.255-0.436-0.404c-2.642-3.069-5.28-6.14-7.825-9.101
	c-0.07-0.214-0.097-0.275-0.109-0.34c-0.011-0.065-0.021-0.135-0.007-0.198c0.2-0.906,0.384-1.816,0.61-2.716
	c6.16-24.524,12.324-49.048,18.492-73.57c0.047-0.185,0.161-0.354,0.245-0.533c0.695-0.396,1.443-0.232,2.156-0.232
	C40.051,3.557,48.025,3.561,56,3.561c12.36,0,24.72,0,37.08,0.003c0.789,0,1.579,0.029,2.251,0.043
	c0.523,0.524,0.307,0.978,0.2,1.414c-0.746,3.03-1.496,6.058-2.251,9.086c-1.832,7.342-3.669,14.682-5.5,22.024
	c-1.526,6.117-3.048,12.235-4.569,18.353c-2.114,8.502-4.226,17.003-6.341,25.504c-1.314,5.282-2.632,10.563-3.956,15.843
	c-0.095,0.38-0.248,0.744-0.381,1.136c-0.609,0.159-1.175,0.309-1.719,0.451c-0.365,0.701-0.712,1.341-0.488,2.188
	c0.449,0.187,0.921,0.383,1.494,0.622c-0.995,3.969-1.976,7.881-2.937,11.71c-0.534,0.254-0.751-0.051-0.953-0.284
	c-2.481-2.86-4.939-5.741-7.439-8.586c-0.497-0.565-0.619-1.141-0.491-1.831c0.084-0.454,0.157-0.91,0.253-1.468
	c-0.475-0.206-0.933-0.404-1.378-0.596c0.033-1.32,0.033-1.322,1.026-1.515c0.255-0.049,0.512-0.086,0.885-0.148
	c0.23-0.752,0.498-1.491,0.681-2.251c1.967-8.199,3.921-16.4,5.878-24.601c1.587-6.65,3.163-13.303,4.761-19.951
	c1.877-7.808,3.777-15.611,5.657-23.419c0.823-3.419,1.627-6.844,2.42-10.271c0.115-0.496,0.119-1.019,0.185-1.621
	c-0.431-0.089-0.74-0.205-1.051-0.209c-4.444-0.068-8.888-0.084-13.394,0.012c-0.188,0.427-0.398,0.762-0.487,1.128
	c-2.608,10.704-5.208,21.411-7.799,32.12c-1.904,7.871-3.793,15.745-5.688,23.619c-2.206,9.163-4.405,18.328-6.631,27.487
	C45.167,100.17,45.177,100.891,44.517,101.413"/>
<path fill-rule="evenodd" clip-rule="evenodd" fill="#E9262A" d="M251.14,101.212c-8.895-7.594-17.468-14.914-26.114-22.295
	c1.522-6.662,3.149-13.222,4.715-19.796c1.55-6.507,3.149-13.002,4.687-19.651c-0.649-0.174-1.13-0.302-1.733-0.464
	c0.478-0.586,1.159-0.201,1.78-0.545c0.109-0.213,0.357-0.538,0.449-0.902c0.456-1.801,0.871-3.612,1.299-5.42
	c0.411-1.743,0.814-3.487,1.232-5.229c0.076-0.316,0.203-0.62,0.307-0.931c0.771-0.468,1.585-0.322,2.362-0.325
	c5.314-0.013,10.629,0,15.943-0.01c0.784-0.002,1.568-0.078,2.401-0.122c0.19-0.53,0.386-0.945,0.489-1.382
	c1.541-6.453,3.061-12.912,4.614-19.362c0.133-0.55,0.046-1.225,0.638-1.605c1.27,0.711,7.689,6.202,8.947,7.676
	c-2.181,9.077-4.429,18.213-6.579,27.006c-0.818,0.873-2.049,0.056-2.392,1.373c0.632,0.152,1.185,0.286,1.762,0.425
	c0,0.345,0.053,0.619-0.007,0.866C261.042,60.628,256.136,80.736,251.14,101.212 M244.472,39.567
	c-0.082,0.605-0.106,0.997-0.192,1.377c-0.203,0.905-0.441,1.802-0.656,2.704c-1.184,4.964-2.372,9.927-3.548,14.892
	c-1.1,4.644-2.146,9.302-3.304,13.932c-0.295,1.183-0.139,1.988,0.835,2.767c2.123,1.699,4.169,3.493,6.26,5.232
	c0.286,0.238,0.647,0.386,0.987,0.583c0.685-0.607,0.674-1.39,0.841-2.071c0.775-3.152,1.488-6.321,2.251-9.477
	c2.292-9.47,4.599-18.937,6.891-28.408c0.137-0.564,0.37-1.146,0.045-1.695c-0.316-0.325-0.931-0.038-1.168-0.628
	c0.602-0.108,1.107-0.199,1.6-0.288c0.466-1.171,0.852-2.262,0.699-3.443c-1.919-0.358-8.702-0.33-10.265,0.036
	c-0.302,1.024-0.616,2.089-0.943,3.198c-0.55,0.051-1.006,0.084-1.46,0.139c-0.35,0.043-0.691,0.196-0.627,0.594
	c0.026,0.164,0.352,0.334,0.572,0.401C243.596,39.506,243.929,39.503,244.472,39.567"/>
<path fill-rule="evenodd" clip-rule="evenodd" fill="#E9262A" d="M175.259,73.694c-0.776-0.551-1.461-0.417-2.109-0.422
	c-2.392-0.018-4.785-0.008-7.178-0.009c-0.465,0-0.932-0.025-1.396-0.005c-0.737,0.034-1.251-0.282-1.656-0.889
	c-0.737-1.106-1.511-2.186-2.271-3.276c-1.216-1.743-2.391-3.518-3.668-5.216c-0.63-0.837-0.698-1.638-0.454-2.602
	c0.93-3.667,1.824-7.343,2.718-11.018c1.789-7.353,3.568-14.708,5.356-22.061c0.14-0.573,0.324-1.135,0.515-1.797
	c0.475-0.05,0.921-0.139,1.367-0.14c9.637-0.009,19.274-0.01,28.912-0.006c0.457,0,0.914,0.059,1.497,0.1
	c-0.061,0.452-0.079,0.826-0.164,1.185c-1.731,7.298-3.462,14.595-5.207,21.889c-2.1,8.78-4.213,17.556-6.315,26.335
	c-0.974,4.066-1.976,8.125-2.878,12.208c-0.226,1.022-0.655,1.604-1.622,2.025c-4.506,1.962-8.977,4.003-13.465,6.007
	c-9.883,4.415-19.768,8.826-29.653,13.235c-0.779,0.347-1.572,0.661-2.514,1.056c-0.023-0.481-0.099-0.798-0.042-1.088
	c0.524-2.671,1.095-5.332,1.601-8.006c0.182-0.962,0.743-1.444,1.593-1.834c8.206-3.77,16.398-7.574,24.593-11.368
	c2.893-1.34,5.77-2.714,8.683-4.006c1.072-0.475,1.641-1.153,1.889-2.324c0.466-2.206,1.11-4.374,1.662-6.564
	C175.162,74.664,175.186,74.203,175.259,73.694 M184.016,36.935c-0.261-0.137-0.429-0.3-0.6-0.302
	c-3.253-0.038-6.506-0.065-9.759-0.07c-0.383-0.001-0.765,0.134-1.186,0.212c-0.173,0.469-0.375,0.888-0.483,1.331
	c-1.25,5.088-2.487,10.179-3.724,15.27c-0.454,1.87-0.882,3.746-1.35,5.612c-0.122,0.484-0.098,0.914,0.147,1.339
	c0.661,1.144,1.244,2.341,2.126,3.294c2.295,0.279,6.949,0.218,8.34-0.101c0.534-1.246,5.665-21.656,6.436-25.643
	C184.024,37.567,184.001,37.242,184.016,36.935"/>
<path fill-rule="evenodd" clip-rule="evenodd" fill="#E9262A" d="M332.105,79.524c1.536-6.822,3.226-13.44,4.804-20.085
	c1.574-6.624,3.319-13.208,4.731-19.993c-0.496-0.16-0.952-0.307-1.782-0.575c0.874-0.163,1.361-0.254,1.95-0.364
	c0.113-0.25,0.295-0.533,0.372-0.842c0.593-2.381,1.163-4.769,1.747-7.153c0.329-1.346,0.67-2.69,1.029-4.129
	c0.52-0.049,0.964-0.129,1.409-0.129c9.833-0.006,19.665-0.005,29.498,0c0.391,0,0.781,0.049,1.279,0.083
	c0.025,0.376,0.124,0.703,0.054,0.989c-0.846,3.481-1.716,6.956-2.584,10.431c-0.031,0.124-0.124,0.232-0.184,0.341
	c-0.562,0.657-1.824-0.208-2.18,1.09c0.576,0.16,1.126,0.313,1.699,0.472c0.026,0.206,0.107,0.41,0.065,0.584
	c-3.627,15.027-7.264,30.051-10.897,45.066c-0.565,0.236-1.04,0.435-1.594,0.667c-0.183,0.703-0.374,1.401-0.544,2.105
	c-0.155,0.642,0.129,1.008,0.756,1.16c0.094,0.023,0.157,0.173,0.234,0.264c-0.611,0.952-0.599,0.952-0.598,2.504
	c0,0.395-0.066,0.798-0.159,1.182c-0.568,2.321-1.148,4.638-1.735,6.954c-0.062,0.245-0.192,0.474-0.345,0.843
	c-0.542-0.38-1.035-0.69-1.488-1.049c-3.022-2.39-6.029-4.798-9.054-7.184c-0.777-0.613-1.507-1.286-2.478-1.641
	c-0.391-0.143-0.715-0.562-0.989-0.917c-0.677-0.873-1.43-1.535-2.632-1.545c-0.356-0.004-0.746-0.243-1.057-0.464
	c-0.595-0.422-1.143-0.909-1.713-1.365c-0.332-0.267-0.453-0.534-0.359-1.015c0.05-0.255-0.34-0.672-0.622-0.904
	c-1.592-1.305-3.216-2.572-4.822-3.861C333.35,80.592,332.804,80.113,332.105,79.524 M351.595,40.703
	c0.579,1.129,0.596,1.134,0.389,1.991c-1.453,5.995-2.917,11.987-4.371,17.982c-1.062,4.383-2.085,8.776-3.196,13.147
	c-0.25,0.986-0.094,1.615,0.751,2.197c2.515,1.732,4.989,3.522,7.486,5.279c0.2,0.14,0.458,0.199,0.803,0.343
	c0.168-0.359,0.348-0.63,0.424-0.927c0.232-0.899,0.413-1.811,0.633-2.713c0.862-3.544,1.732-7.087,2.598-10.631
	c1.038-4.252,2.081-8.504,3.109-12.759c1.138-4.708,2.266-9.418,3.383-14.13c0.085-0.358,0.051-0.744,0.07-1.08
	c-0.546-0.165-0.971-0.292-1.393-0.431c-0.014-0.004,0.01-0.123,0.018-0.204c0.57-0.095,1.144-0.19,1.781-0.295
	c0.201-0.92,0.713-1.731,0.387-2.653c-1.825-0.304-8.971-0.3-10.653-0.002c-0.321,0.812-0.655,1.656-0.966,2.444
	c-0.664,0.097-1.195,0.132-1.697,0.271c-0.161,0.045-0.246,0.365-0.335,0.508c0.457,0.676,1.287,0.122,1.624,0.71
	C352.59,40.497,351.743,40.272,351.595,40.703"/>
<path fill-rule="evenodd" clip-rule="evenodd" fill="#E9262A" d="M326.437,85.309c-0.638,0.269-1.119,0.471-1.604,0.676
	c-0.168,0.617-0.342,1.187-0.475,1.766c-0.224,0.976-0.213,0.978,0.886,1.655c-0.145,1.817-2.179,10.016-2.896,11.571
	c-0.591-0.438-1.18-0.848-1.741-1.294c-4.106-3.267-8.209-6.54-12.306-9.818c-0.78-0.625-1.513-1.302-2.632-1.217
	c-0.23,0.017-0.507-0.149-0.71-0.3c-0.638-0.476-1.256-0.98-1.872-1.486c-0.15-0.124-0.39-0.322-0.368-0.445
	c0.259-1.404-0.979-1.728-1.722-2.353c-1.776-1.492-3.615-2.909-5.349-4.292c-0.26-0.883,0.02-1.586,0.189-2.28
	c1.717-7.097,3.457-14.188,5.185-21.281c0.503-2.064,0.943-4.143,1.497-6.193c0.258-0.953,0.261-1.811-0.293-2.738
	c-0.349-0.145-0.768-0.317-1.161-0.48c-0.057-0.158-0.155-0.289-0.135-0.397c0.1-0.517,0.232-1.028,0.374-1.63
	c0.796-0.093,1.563-0.185,2.405-0.285c0.652-1.611,1.002-3.267,1.228-5.066c-0.492-0.145-0.913-0.269-1.462-0.43
	c0.465-0.575,1.185-0.152,1.788-0.683c1.192-3.774,1.853-7.905,2.984-11.742c0.216-0.156,0.264-0.203,0.321-0.228
	c0.059-0.026,0.129-0.045,0.194-0.045c9.833-0.017,19.665-0.034,29.498-0.048c0.531,0,1.064,0.009,1.594,0.024
	c0.129,0.004,0.258,0.048,0.384,0.084c0.063,0.018,0.118,0.059,0.277,0.142c0,0.268,0.068,0.606-0.011,0.904
	c-0.945,3.588-1.647,7.239-2.679,10.643c-0.723,0.633-1.903-0.074-2.308,1.183c0.683,0.162,1.235,0.293,1.746,0.413
	c0.045,0.234,0.117,0.374,0.089,0.491C333.729,55.159,330.094,70.185,326.437,85.309 M327.996,35.898
	c-1.732-0.363-8.776-0.41-10.853-0.117c-0.31,0.805-0.636,1.649-0.938,2.434c-1.7,0.254-1.7,0.254-2.09,0.999
	c0.574,0.151,1.123,0.295,1.703,0.448c0.053,1.568-0.57,2.89-0.907,4.295c-0.88,0.149-1.65,0.279-2.428,0.41
	c-0.318,0.942-0.718,1.777-0.604,2.827c0.447,0.137,0.873,0.267,1.363,0.417c0.171,0.377,0.359,0.793,0.55,1.215
	c-1.128,4.656-2.25,9.297-3.377,13.936c-0.908,3.738-1.799,7.481-2.75,11.209c-0.233,0.915-0.019,1.482,0.755,2.016
	c2.461,1.694,4.877,3.451,7.323,5.167c0.295,0.207,0.67,0.302,1.027,0.456c0.568-0.789,0.595-1.611,0.779-2.364
	c2.018-8.246,4.012-16.498,6.008-24.75c1.139-4.707,2.272-9.415,3.397-14.125c0.072-0.301,0.056-0.623,0.071-0.821
	c-0.464-0.511-1.115-0.208-1.67-0.752c0.79-0.118,1.354-0.202,2.046-0.305C327.591,37.663,327.778,36.843,327.996,35.898"/>
<path fill-rule="evenodd" clip-rule="evenodd" fill="#E9262A" d="M81.581,78.637c-0.015-0.329-0.071-0.538-0.027-0.721
	c2.405-9.932,4.817-19.864,7.239-29.792c0.077-0.317,0.251-0.611,0.376-0.906c0.722-0.354,1.464-0.204,2.181-0.207
	c5.315-0.014,10.631-0.004,15.947-0.011c0.719,0,1.437-0.049,2.212-0.078c0.221-0.663,0.438-1.21,0.584-1.775
	c0.547-2.121,1.085-4.244,1.594-6.374c0.15-0.629,0.419-1.27,0.142-1.949c-0.667-0.459-1.42-0.28-2.131-0.282
	c-5.183-0.016-10.365-0.002-15.548-0.014c-0.717-0.002-1.464,0.151-2.215-0.277c0-0.297-0.042-0.626,0.007-0.942
	c0.284-1.829,1.755-7.583,2.286-8.957c2.457-0.215,4.972-0.068,7.481-0.094c2.591-0.026,5.183-0.005,7.774-0.005
	c2.525,0,5.05-0.008,7.575,0.001c2.515,0.01,5.032-0.049,7.688,0.046c-0.056,0.577-0.047,1.026-0.148,1.448
	c-1.372,5.746-2.761,11.486-4.141,17.229c-2.046,8.518-4.08,17.039-6.134,25.556c-2.148,8.902-4.314,17.801-6.47,26.701
	c-0.248,1.024-0.489,2.05-0.717,3.011c-0.691,0.277-0.977-0.177-1.301-0.458c-3.065-2.65-6.119-5.313-9.175-7.974
	c-4.66-4.056-9.319-8.112-13.977-12.169C82.331,79.341,81.996,79.018,81.581,78.637 M101.235,81.08
	c0.852-2.215,6.264-24.458,6.372-26.126c-0.372-0.067-0.752-0.194-1.133-0.197c-2.523-0.016-5.046-0.022-7.569,0.004
	c-1.31,0.013-1.331,0.046-1.676,1.452c-1.17,4.765-2.332,9.533-3.488,14.301c-0.278,1.149-0.523,2.306-0.803,3.545
	c2.53,2.237,5.009,4.436,7.5,6.621C100.625,80.844,100.895,80.913,101.235,81.08"/>
<path fill-rule="evenodd" clip-rule="evenodd" fill="#E9262A" d="M270.317,39.401c-0.767-0.165-1.198-0.257-1.623-0.349
	c0.039-0.296,0.178-0.335,1.59-0.522c0.455-0.434,0.54-1.027,0.68-1.609c0.761-3.163,1.538-6.323,2.313-9.482
	c0.077-0.316,0.185-0.623,0.305-1.026c0.404-0.054,0.783-0.15,1.162-0.15c9.637-0.007,19.274-0.005,28.911,0
	c0.259,0,0.519,0.052,0.899,0.093c0.025,0.34,0.127,0.663,0.059,0.947c-0.78,3.294-1.581,6.583-2.393,9.871
	c-0.092,0.373-0.287,0.721-0.389,0.969c-0.716,0.506-1.8-0.179-2.144,1.047c0.576,0.162,1.125,0.318,1.741,0.491
	c0,0.271,0.048,0.538-0.008,0.781c-0.264,1.156-0.557,2.306-0.823,3.39c-2.11,0.613-2.113,0.613-2.482,2.628
	c-0.034,0.189-0.004,0.388-0.004,0.683c0.393,0.149,0.811,0.306,1.339,0.505c0.067,1.638-0.557,3.184-0.913,4.771
	c-0.347,1.545-0.759,3.077-1.114,4.497c-0.742,0.498-1.427,0.375-2.078,0.376c-4.851,0.008-9.703-0.006-14.554-0.006
	c-1.391,0-2.781,0.024-3.98,0.035c-0.753,0.498-0.811,1.116-0.95,1.692c-1.031,4.259-2.059,8.518-3.087,12.777
	c-0.188,0.774-0.283,1.585-0.575,2.317c-0.404,1.013-0.015,1.626,0.764,2.197c1.072,0.785,2.11,1.617,3.164,2.426
	c1.318,1.01,2.634,2.023,3.962,3.022c0.308,0.232,0.657,0.409,1.065,0.659c0.889-1.318,0.912-2.816,1.304-4.186
	c0.419-1.467,0.742-2.962,1.102-4.447c0.344-1.418,0.682-2.838,1.026-4.273c0.996-0.634,2.081-0.334,3.116-0.367
	c1.128-0.036,2.26-0.023,3.388,0.005c1.042,0.025,2.114-0.217,3.127,0.255c0.019,0.239,0.086,0.448,0.043,0.63
	c-2.456,10.128-4.921,20.254-7.391,30.379c-0.058,0.24-0.177,0.465-0.304,0.789c-0.304-0.162-0.555-0.248-0.749-0.406
	c-8.417-6.906-16.863-13.776-25.304-20.754c0.83-3.448,1.634-6.8,2.443-10.15c0.826-3.42,1.655-6.839,2.482-10.258
	c0.812-3.356,1.622-6.712,2.438-10.068C268.691,46.242,269.531,42.911,270.317,39.401 M289.79,44.486
	c0.894-2.206,1.17-3.387,1.203-5.129c-0.233-0.054-0.483-0.102-0.727-0.171c-0.216-0.06-0.568,0.092-0.569-0.399
	c0.552-0.102,1.11-0.207,1.731-0.322c0.2-0.974,0.799-1.833,0.397-2.902c-1.67-0.373-3.328-0.2-4.969-0.175
	c-1.696,0.026-3.423-0.311-5.139,0.24c-0.306,0.904-0.598,1.765-0.891,2.629c-0.615,0.081-1.139,0.124-1.649,0.234
	c-0.14,0.03-0.317,0.251-0.331,0.398c-0.014,0.146,0.122,0.395,0.253,0.447c0.406,0.164,0.841,0.254,1.284,0.379
	c0,0.371,0.039,0.638-0.007,0.889c-0.143,0.781-0.305,1.559-0.482,2.332c-0.384,1.676-0.798,3.345-1.162,5.026
	c-0.076,0.351,0.016,0.739,0.032,1.159c0.365,0.064,0.618,0.146,0.871,0.147c2.65,0.012,5.299,0.012,7.949,0.011
	c0.197,0,0.424,0.024,0.586-0.059c0.274-0.143,0.615-0.313,0.733-0.563c0.183-0.388,0.202-0.854,0.286-1.26
	c-0.573-0.285-1.028-0.511-1.579-0.785c0.218-0.688,0.413-1.297,0.601-1.887C288.785,44.638,289.238,44.57,289.79,44.486"/>
<path fill-rule="evenodd" clip-rule="evenodd" fill="#E9262A" d="M215.588,100.817c-1.396-0.83-25.111-20.441-26.636-22.055
	c0.845-4.317,2.014-8.669,3.032-13.052c1.02-4.394,2.087-8.778,3.132-13.166c1.031-4.325,2.062-8.649,3.09-12.974
	c1.042-4.379,2.006-8.778,3.196-13.223c1.732-0.172,3.383-0.076,5.027-0.082c1.584-0.005,3.172-0.06,4.667,0.059
	c0.545,0.662,0.284,1.259,0.163,1.815c-0.338,1.556-0.727,3.1-1.098,4.649c-1.856,7.743-3.714,15.485-5.571,23.228
	c-1.347,5.614-2.696,11.226-4.039,16.841c-0.107,0.445-0.178,0.899-0.284,1.434c2.689,2.495,5.432,4.895,8.194,7.272
	c0.185,0.158,0.456,0.216,0.796,0.37c0.783-1.858,1.033-3.76,1.482-5.604c0.439-1.805,0.835-3.62,1.273-5.425
	c0.454-1.871,0.947-3.731,1.398-5.602c0.451-1.87,0.868-3.748,1.306-5.62c0.439-1.874,0.879-3.748,1.333-5.618
	c0.437-1.806,0.904-3.604,1.337-5.411c0.448-1.872,0.866-3.751,1.307-5.624c0.441-1.872,0.891-3.742,1.342-5.613
	c0.436-1.806,0.868-3.612,1.322-5.413c0.468-1.858,0.769-3.76,1.375-5.532c1.839-0.294,9.265-0.279,10.825,0.008
	c0.028,0.185,0.119,0.392,0.076,0.568c-5.919,24.51-11.846,49.017-17.783,73.524C215.829,100.667,215.679,100.735,215.588,100.817"
	/>
<path fill-rule="evenodd" clip-rule="evenodd" fill="#E9262A" d="M144.626,93.296c-2.102,0.983-4.084,1.913-6.07,2.833
	c-0.419,0.194-0.855,0.35-1.408,0.575c-0.51-0.364-1.051-0.728-1.568-1.122c-0.472-0.36-0.919-0.753-1.458-1.198
	c0.056-0.507,0.061-1.033,0.18-1.532c1.88-7.877,3.781-15.749,5.664-23.625c1.682-7.036,3.344-14.076,5.022-21.113
	c0.801-3.357,1.618-6.71,2.431-10.064c0.171-0.704,0.445-1.396,0.23-2.128c-1.431-0.345-8.332-0.408-10.579-0.095
	c-0.573,0.729-0.664,1.671-0.877,2.559c-1.36,5.68-2.703,11.364-4.049,17.048c-1.835,7.751-3.669,15.501-5.5,23.252
	c-0.473,2.003-0.929,4.009-1.412,6.01c-0.152,0.629-0.369,1.241-0.593,1.979c-0.339-0.188-0.584-0.276-0.769-0.433
	c-2.579-2.186-5.151-4.381-7.666-6.524c0-0.413-0.052-0.689,0.008-0.936c4.16-17.223,8.329-34.444,12.505-51.663
	c0.061-0.25,0.225-0.474,0.331-0.69c1.672-0.223,29.459-0.23,31.305-0.01c0.399,0.572,0.044,1.159-0.077,1.694
	c-0.67,2.977-1.405,5.94-2.115,8.908c-1.422,5.937-2.839,11.876-4.265,17.812c-1.441,6.002-2.896,12.001-4.336,18.003
	c-1.456,6.068-2.902,12.139-4.355,18.207C145.035,91.749,144.844,92.452,144.626,93.296"/>
<path fill-rule="evenodd" clip-rule="evenodd" fill="#E9262A" d="M340.189,21.036c-2.823-2.27-5.497-4.42-8.178-6.576
	c-0.025-0.31-0.114-0.584-0.057-0.823c0.78-3.276,1.58-6.547,2.412-9.969c1.794,0.899,3.006,2.302,4.405,3.446
	c1.425,1.165,2.901,2.284,4.104,3.621C342.571,12.89,340.959,19.149,340.189,21.036"/>
<path fill-rule="evenodd" clip-rule="evenodd" fill="#E9262A" d="M318.052,3.78c1.397,0.849,6.84,5.425,8.255,6.924
	c-0.112,1.829-1.931,8.891-2.602,10.101c-1.372-0.764-6.75-5.041-8.313-6.637c0.52-3.241,1.564-6.458,2.282-9.746
	C317.724,4.192,317.922,3.994,318.052,3.78"/>
<path fill-rule="evenodd" clip-rule="evenodd" fill="#E9262A" d="M354.704,3.819c0.124,0.014,0.282-0.015,0.366,0.051
	c0.729,0.573,1.454,1.15,2.16,1.75c1.964,1.669,3.918,3.35,5.883,5.033c-0.318,2.075-0.864,3.98-1.43,5.872
	c-0.157,0.525-0.823,0.906-0.955,1.429c-0.131,0.515,0.202,1.13,0.174,1.693c-0.02,0.409-0.298,0.804-0.519,1.348
	c-0.659-0.502-1.182-0.895-1.698-1.296c-0.314-0.244-0.597-0.536-0.933-0.743c-0.665-0.41-1.568-0.624-1.985-1.2
	c-0.517-0.713-1.11-1.283-1.764-1.829c-0.608-0.507-1.213-1.017-1.766-1.48C352.218,12.938,353.979,5.429,354.704,3.819"/>
<path fill-rule="evenodd" clip-rule="evenodd" fill="#E9262A" d="M125.507,20.862c-1.589-0.964-7.096-5.391-8.384-6.735
	c0.732-3.415,1.575-6.868,2.53-10.358c0.289,0.085,0.504,0.087,0.632,0.194c2.392,1.999,4.768,4.018,7.163,6.015
	c0.582,0.485,0.748,1.04,0.561,1.764c-0.73,2.823-1.438,5.653-2.164,8.478C125.797,20.406,125.664,20.57,125.507,20.862"/>
<path fill-rule="evenodd" clip-rule="evenodd" fill="#E9262A" d="M103.142,3.735c1.434,0.808,6.625,5.135,8.403,6.947
	c-0.065,1.321-1.502,7.28-2.452,10.123c-0.281-0.106-0.607-0.149-0.827-0.324c-2.283-1.813-4.543-3.655-6.824-5.471
	c-0.563-0.448-0.908-0.93-0.713-1.693c0.424-1.668,0.817-3.344,1.236-5.013C102.334,6.831,102.721,5.363,103.142,3.735"/>
<path fill-rule="evenodd" clip-rule="evenodd" fill="#E9262A" d="M371.15,3.75c1.374,0.754,5.838,4.457,8.036,6.653
	c0.156,1.081,0.097,2.178-0.216,3.291c-0.521,1.851-0.947,3.729-1.428,5.591c-0.129,0.498-0.314,0.983-0.448,1.394
	c-0.194,0.064-0.255,0.099-0.315,0.099c-0.063,0-0.131-0.028-0.189-0.058c-0.116-0.062-0.237-0.124-0.339-0.206
	c-2.28-1.827-4.558-3.654-6.834-5.488c-0.255-0.205-0.485-0.442-0.807-0.738c0.134-1.835,0.742-3.592,1.181-5.379
	C370.213,7.189,370.478,5.421,371.15,3.75"/>
</svg>
